<mxfile host="app.diagrams.net" agent="Mozilla/5.0 (Windows NT 10.0; Win64; x64) AppleWebKit/537.36 (KHTML, like Gecko) Chrome/138.0.0.0 Safari/537.36 Edg/138.0.0.0" version="28.0.5">
  <diagram name="Page-1" id="BVU890VyiAhuRi7yRh8d">
    <mxGraphModel dx="1161" dy="892" grid="1" gridSize="10" guides="1" tooltips="1" connect="1" arrows="1" fold="1" page="1" pageScale="1" pageWidth="850" pageHeight="1100" math="0" shadow="0">
      <root>
        <mxCell id="0" />
        <mxCell id="1" parent="0" />
        <mxCell id="T8ba6v_VCAnFZzOgwk-e-24" value="" style="rounded=0;whiteSpace=wrap;html=1;" vertex="1" parent="1">
          <mxGeometry y="170" width="850" height="370" as="geometry" />
        </mxCell>
        <mxCell id="T8ba6v_VCAnFZzOgwk-e-1" value="&lt;font style=&quot;font-size: 16px;&quot;&gt;中央仓库&lt;/font&gt;" style="shape=cylinder3;whiteSpace=wrap;html=1;boundedLbl=1;backgroundOutline=1;size=15;" vertex="1" parent="1">
          <mxGeometry x="360" y="240" width="120" height="80" as="geometry" />
        </mxCell>
        <mxCell id="T8ba6v_VCAnFZzOgwk-e-2" value="&lt;font style=&quot;font-size: 18px;&quot;&gt;Server&lt;br&gt;（RBE）&lt;/font&gt;" style="rounded=0;whiteSpace=wrap;html=1;" vertex="1" parent="1">
          <mxGeometry x="360" y="400" width="120" height="60" as="geometry" />
        </mxCell>
        <mxCell id="T8ba6v_VCAnFZzOgwk-e-3" value="&lt;font style=&quot;font-size: 18px;&quot;&gt;Executor&lt;/font&gt;" style="rounded=0;whiteSpace=wrap;html=1;" vertex="1" parent="1">
          <mxGeometry x="600" y="400" width="120" height="60" as="geometry" />
        </mxCell>
        <mxCell id="T8ba6v_VCAnFZzOgwk-e-4" value="&lt;font style=&quot;font-size: 18px;&quot;&gt;Client&lt;br&gt;（Bazel）&lt;/font&gt;" style="rounded=0;whiteSpace=wrap;html=1;" vertex="1" parent="1">
          <mxGeometry x="120" y="400" width="120" height="60" as="geometry" />
        </mxCell>
        <mxCell id="T8ba6v_VCAnFZzOgwk-e-5" value="" style="endArrow=classic;html=1;rounded=0;entryX=0;entryY=0.25;entryDx=0;entryDy=0;exitX=1;exitY=0.25;exitDx=0;exitDy=0;" edge="1" parent="1" source="T8ba6v_VCAnFZzOgwk-e-4" target="T8ba6v_VCAnFZzOgwk-e-2">
          <mxGeometry width="50" height="50" relative="1" as="geometry">
            <mxPoint x="240" y="418" as="sourcePoint" />
            <mxPoint x="360" y="418" as="targetPoint" />
          </mxGeometry>
        </mxCell>
        <mxCell id="T8ba6v_VCAnFZzOgwk-e-6" value="" style="endArrow=classic;html=1;rounded=0;entryX=0;entryY=0.25;entryDx=0;entryDy=0;exitX=1;exitY=0.25;exitDx=0;exitDy=0;" edge="1" parent="1" source="T8ba6v_VCAnFZzOgwk-e-2" target="T8ba6v_VCAnFZzOgwk-e-3">
          <mxGeometry width="50" height="50" relative="1" as="geometry">
            <mxPoint x="350" y="520" as="sourcePoint" />
            <mxPoint x="470" y="520" as="targetPoint" />
          </mxGeometry>
        </mxCell>
        <mxCell id="T8ba6v_VCAnFZzOgwk-e-7" value="" style="endArrow=classic;html=1;rounded=0;entryX=1;entryY=0.75;entryDx=0;entryDy=0;exitX=0;exitY=0.75;exitDx=0;exitDy=0;" edge="1" parent="1" source="T8ba6v_VCAnFZzOgwk-e-3" target="T8ba6v_VCAnFZzOgwk-e-2">
          <mxGeometry width="50" height="50" relative="1" as="geometry">
            <mxPoint x="300" y="490" as="sourcePoint" />
            <mxPoint x="420" y="490" as="targetPoint" />
          </mxGeometry>
        </mxCell>
        <mxCell id="T8ba6v_VCAnFZzOgwk-e-8" value="" style="endArrow=classic;html=1;rounded=0;entryX=1;entryY=0.75;entryDx=0;entryDy=0;exitX=0;exitY=0.75;exitDx=0;exitDy=0;" edge="1" parent="1" source="T8ba6v_VCAnFZzOgwk-e-2" target="T8ba6v_VCAnFZzOgwk-e-4">
          <mxGeometry width="50" height="50" relative="1" as="geometry">
            <mxPoint x="440" y="540" as="sourcePoint" />
            <mxPoint x="560" y="540" as="targetPoint" />
          </mxGeometry>
        </mxCell>
        <mxCell id="T8ba6v_VCAnFZzOgwk-e-9" value="" style="endArrow=classic;html=1;rounded=0;entryX=0.75;entryY=0;entryDx=0;entryDy=0;exitX=1;exitY=0;exitDx=0;exitDy=52.5;exitPerimeter=0;" edge="1" parent="1" source="T8ba6v_VCAnFZzOgwk-e-1" target="T8ba6v_VCAnFZzOgwk-e-3">
          <mxGeometry width="50" height="50" relative="1" as="geometry">
            <mxPoint x="290" y="540" as="sourcePoint" />
            <mxPoint x="410" y="540" as="targetPoint" />
            <Array as="points">
              <mxPoint x="690" y="293" />
            </Array>
          </mxGeometry>
        </mxCell>
        <mxCell id="T8ba6v_VCAnFZzOgwk-e-10" value="" style="endArrow=classic;html=1;rounded=0;entryX=1;entryY=0;entryDx=0;entryDy=27.5;exitX=0.25;exitY=0;exitDx=0;exitDy=0;entryPerimeter=0;" edge="1" parent="1" source="T8ba6v_VCAnFZzOgwk-e-3" target="T8ba6v_VCAnFZzOgwk-e-1">
          <mxGeometry width="50" height="50" relative="1" as="geometry">
            <mxPoint x="510" y="360" as="sourcePoint" />
            <mxPoint x="630" y="360" as="targetPoint" />
            <Array as="points">
              <mxPoint x="630" y="268" />
            </Array>
          </mxGeometry>
        </mxCell>
        <mxCell id="T8ba6v_VCAnFZzOgwk-e-11" value="" style="endArrow=classic;html=1;rounded=0;entryX=0.25;entryY=0;entryDx=0;entryDy=0;exitX=0;exitY=0;exitDx=0;exitDy=52.5;exitPerimeter=0;" edge="1" parent="1" source="T8ba6v_VCAnFZzOgwk-e-1" target="T8ba6v_VCAnFZzOgwk-e-4">
          <mxGeometry width="50" height="50" relative="1" as="geometry">
            <mxPoint x="450" y="400" as="sourcePoint" />
            <mxPoint x="570" y="400" as="targetPoint" />
            <Array as="points">
              <mxPoint x="150" y="293" />
            </Array>
          </mxGeometry>
        </mxCell>
        <mxCell id="T8ba6v_VCAnFZzOgwk-e-12" value="" style="endArrow=classic;html=1;rounded=0;entryX=0;entryY=0;entryDx=0;entryDy=27.5;exitX=0.75;exitY=0;exitDx=0;exitDy=0;entryPerimeter=0;" edge="1" parent="1" source="T8ba6v_VCAnFZzOgwk-e-4" target="T8ba6v_VCAnFZzOgwk-e-1">
          <mxGeometry width="50" height="50" relative="1" as="geometry">
            <mxPoint x="250" y="340" as="sourcePoint" />
            <mxPoint x="370" y="340" as="targetPoint" />
            <Array as="points">
              <mxPoint x="210" y="268" />
            </Array>
          </mxGeometry>
        </mxCell>
        <mxCell id="T8ba6v_VCAnFZzOgwk-e-13" value="&lt;font style=&quot;font-size: 13px;&quot;&gt;1.上传任务所需文件&lt;/font&gt;" style="text;html=1;align=center;verticalAlign=middle;resizable=0;points=[];autosize=1;strokeColor=none;fillColor=none;" vertex="1" parent="1">
          <mxGeometry x="210" y="237" width="140" height="30" as="geometry" />
        </mxCell>
        <mxCell id="T8ba6v_VCAnFZzOgwk-e-14" value="&lt;font style=&quot;font-size: 13px;&quot;&gt;2.发送任务&lt;/font&gt;" style="text;html=1;align=center;verticalAlign=middle;resizable=0;points=[];autosize=1;strokeColor=none;fillColor=none;" vertex="1" parent="1">
          <mxGeometry x="257" y="384" width="90" height="30" as="geometry" />
        </mxCell>
        <mxCell id="T8ba6v_VCAnFZzOgwk-e-15" value="&lt;font style=&quot;font-size: 13px;&quot;&gt;3.发送任务&lt;/font&gt;" style="text;html=1;align=center;verticalAlign=middle;resizable=0;points=[];autosize=1;strokeColor=none;fillColor=none;" vertex="1" parent="1">
          <mxGeometry x="495" y="384" width="90" height="30" as="geometry" />
        </mxCell>
        <mxCell id="T8ba6v_VCAnFZzOgwk-e-16" value="&lt;font style=&quot;font-size: 13px;&quot;&gt;4.下载任务&lt;br&gt;所需文件&lt;/font&gt;" style="text;html=1;align=center;verticalAlign=middle;resizable=0;points=[];autosize=1;strokeColor=none;fillColor=none;" vertex="1" parent="1">
          <mxGeometry x="690" y="320" width="90" height="40" as="geometry" />
        </mxCell>
        <mxCell id="T8ba6v_VCAnFZzOgwk-e-17" value="&lt;span style=&quot;font-size: 13px;&quot;&gt;5.上传任务执行产物&lt;/span&gt;" style="text;html=1;align=center;verticalAlign=middle;resizable=0;points=[];autosize=1;strokeColor=none;fillColor=none;" vertex="1" parent="1">
          <mxGeometry x="485" y="237" width="140" height="30" as="geometry" />
        </mxCell>
        <mxCell id="T8ba6v_VCAnFZzOgwk-e-18" value="&lt;span style=&quot;font-size: 13px;&quot;&gt;6.通知执行完毕&lt;/span&gt;" style="text;html=1;align=center;verticalAlign=middle;resizable=0;points=[];autosize=1;strokeColor=none;fillColor=none;" vertex="1" parent="1">
          <mxGeometry x="485" y="445" width="110" height="30" as="geometry" />
        </mxCell>
        <mxCell id="T8ba6v_VCAnFZzOgwk-e-20" value="&lt;span style=&quot;font-size: 13px;&quot;&gt;7.返回结果&lt;/span&gt;" style="text;html=1;align=center;verticalAlign=middle;resizable=0;points=[];autosize=1;strokeColor=none;fillColor=none;" vertex="1" parent="1">
          <mxGeometry x="257" y="445" width="90" height="30" as="geometry" />
        </mxCell>
        <mxCell id="T8ba6v_VCAnFZzOgwk-e-23" value="&lt;span style=&quot;font-size: 13px;&quot;&gt;8.下载远程&lt;br&gt;执行产物&lt;/span&gt;" style="text;html=1;align=center;verticalAlign=middle;resizable=0;points=[];autosize=1;strokeColor=none;fillColor=none;" vertex="1" parent="1">
          <mxGeometry x="60" y="320" width="90" height="40" as="geometry" />
        </mxCell>
        <mxCell id="T8ba6v_VCAnFZzOgwk-e-27" value="&lt;font style=&quot;font-size: 13px;&quot;&gt;gRPC + REAPI&lt;/font&gt;" style="text;html=1;align=center;verticalAlign=middle;resizable=0;points=[];autosize=1;strokeColor=none;fillColor=none;" vertex="1" parent="1">
          <mxGeometry x="210" y="330" width="110" height="30" as="geometry" />
        </mxCell>
        <mxCell id="T8ba6v_VCAnFZzOgwk-e-29" value="&lt;font style=&quot;font-size: 18px;&quot;&gt;Executor&lt;/font&gt;" style="rounded=0;whiteSpace=wrap;html=1;" vertex="1" parent="1">
          <mxGeometry x="606" y="407" width="120" height="60" as="geometry" />
        </mxCell>
        <mxCell id="T8ba6v_VCAnFZzOgwk-e-30" value="&lt;font style=&quot;font-size: 18px;&quot;&gt;Executor&lt;/font&gt;" style="rounded=0;whiteSpace=wrap;html=1;" vertex="1" parent="1">
          <mxGeometry x="613" y="414" width="120" height="60" as="geometry" />
        </mxCell>
      </root>
    </mxGraphModel>
  </diagram>
</mxfile>
